<?xml version="1.0" encoding="UTF-8"?>
<svg fill="#fff" enable-background="new 0 0 512.001 512.001" version="1.1" viewBox="0 0 512.001 512.001" xml:space="preserve" xmlns="http://www.w3.org/2000/svg">
			<path d="m490.75 146.25c-16.294-27.433-39.185-53.528-54.641-67.218-33.74-29.893-61.885-29.165-75.662-26.069-5.788 1.301-11.103 3.446-15.782 6.307-24.039-17.839-53.283-26.578-88.663-26.578s-64.625 8.739-88.663 26.579c-4.68-2.861-9.994-5.007-15.782-6.307-13.773-3.095-41.922-3.824-75.66 26.068-15.457 13.691-38.347 39.786-54.643 67.219-22.062 37.141-26.976 67.186-14.606 89.303 15.104 27.003 38.014 33.913 56.509 35.617-4.546 17.655-7.353 36.542-7.353 60.075 0 31.193 7.1 58.029 21.105 79.763 12.311 19.108 30.035 34.409 52.679 45.478 41.838 20.451 92.185 22.816 126.42 22.816s84.578-2.365 126.42-22.816c22.643-11.069 40.368-26.37 52.679-45.478 14.004-21.735 21.105-48.571 21.105-79.763 0-23.532-2.807-42.419-7.353-60.075 18.495-1.705 41.406-8.616 56.509-35.618 12.368-22.115 7.453-52.161-14.608-89.303zm-417.87 94.054c-16.368-0.43-29.678-3.599-38.879-20.048-6.242-11.161-1.067-32.301 14.2-58.002 14.489-24.393 35.286-48.079 48.478-59.766 21.786-19.304 38.118-20.367 45.802-19.338-22.867 27.876-36.883 64.104-48.604 99.327-4.854 14.586-9.532 27.039-14.058 39.084-2.42 6.444-4.748 12.642-6.939 18.743zm162.68 102.75c-8.107-8.103-12.35-16.609-12.35-20.823 0-3.763 0.645-4.033 3.042-5.042 6.833-2.875 20.253-3.207 29.753-3.207s22.92 0.332 29.753 3.207c2.397 1.008 3.042 1.28 3.042 5.042 0 4.214-4.242 12.719-12.35 20.823-7.973 7.968-16.484 12.267-20.446 12.267s-12.471-4.299-20.444-12.267zm133.1 85.278c-24.051 11.755-55.889 18.131-96.983 19.394v-64.194c12.304-4.748 22.324-13.708 26.93-18.311 6.475-6.471 21.535-23.615 21.535-42.989 0-15.849-7.894-27.899-22.228-33.929-9.554-4.02-21.696-5.66-41.906-5.66s-32.352 1.64-41.907 5.66c-14.333 6.03-22.228 18.079-22.228 33.929 0 19.374 15.061 36.517 21.535 42.989 4.606 4.604 14.627 13.564 26.93 18.311v64.194c-41.094-1.262-72.932-7.637-96.983-19.394-37.822-18.488-56.208-50.245-56.208-97.086 0-40.072 9.234-64.649 22.013-98.664 4.413-11.745 9.413-25.057 14.456-40.21 27.7-83.236 57.002-128.34 132.39-128.34s104.69 45.106 132.39 128.34c5.042 15.154 10.044 28.465 14.456 40.21 12.779 34.015 22.013 58.591 22.013 98.664 1e-3 46.841-18.385 78.598-56.206 97.086zm109.35-208.08c-9.202 16.451-22.512 19.617-38.88 20.048-2.192-6.102-4.518-12.299-6.938-18.743-4.525-12.044-9.203-24.498-14.058-39.084-11.721-35.223-25.737-71.451-48.604-99.327 7.684-1.027 24.017 0.034 45.804 19.339 13.192 11.685 33.988 35.37 48.477 59.763 15.266 25.703 20.441 46.844 14.199 58.004z"/>
			<path d="m203.85 199.26c-11.337 0-20.564 9.321-20.564 20.83 0 11.508 9.226 20.837 20.564 20.837 11.352 0 20.577-9.33 20.577-20.837 0-11.509-9.225-20.83-20.577-20.83z"/>
			<path d="m308 199.09c-11.447 0-20.733 9.399-20.733 20.993s9.286 20.993 20.733 20.993c11.434 0 20.719-9.399 20.719-20.993 1e-3 -11.594-9.285-20.993-20.719-20.993z"/>
</svg>
