<?xml version="1.0" encoding="UTF-8"?>
<svg enable-background="new 0 0 417.606 417.606" version="1.1" viewBox="0 0 417.606 417.606" xml:space="preserve" xmlns="http://www.w3.org/2000/svg">
<g fill="#F05228">
	<path d="m251.91 331.41c-91.379 0-165.71-74.338-165.71-165.7 0-91.371 74.334-165.7 165.71-165.7 91.366 0 165.7 74.334 165.7 165.7 0 91.367-74.334 165.7-165.7 165.7zm0-269.44c-57.203 0-103.74 46.532-103.74 103.74 0 57.195 46.532 103.74 103.74 103.74 57.199 0 103.74-46.537 103.74-103.74-4e-3 -57.203-46.536-103.74-103.74-103.74z"/>
		<rect transform="matrix(-.7071 -.7071 .7071 -.7071 -79.728 623.65)" x="58.314" y="233.08" width="61.968" height="190.52"/>
		<rect transform="matrix(-.7071 -.7071 .7071 -.7071 -79.764 623.59)" x="-5.991" y="297.33" width="190.52" height="61.968"/>
</g>
</svg>
