<?xml version="1.0" encoding="UTF-8"?>
<svg enable-background="new 0 0 426.667 426.667" version="1.1" viewBox="0 0 426.667 426.667" xml:space="preserve" xmlns="http://www.w3.org/2000/svg">
<g fill="#50C8EF">
	<path d="m165.7 426.67c-91.371 0-165.7-74.334-165.7-165.7 0-91.366 74.334-165.7 165.7-165.7 91.366 0 165.7 74.334 165.7 165.7 0 91.371-74.334 165.7-165.7 165.7zm0-269.43c-57.199 0-103.74 46.532-103.74 103.73s46.532 103.74 103.74 103.74c57.195 0 103.74-46.532 103.74-103.74-4e-3 -57.199-46.541-103.73-103.74-103.73z"/>
	<polygon points="426.67 165.7 364.7 165.7 364.7 61.969 260.96 61.969 260.96 0 426.67 0"/>
		<rect transform="matrix(-.7071 -.7071 .7071 -.7071 490.91 400.05)" x="297.32" y="3.092" width="61.968" height="190.52"/>
</g>
</svg>
