<?xml version="1.0" encoding="UTF-8"?>
<svg fill="#fff" enable-background="new 0 0 512.001 512.001" version="1.1" viewBox="0 0 512.001 512.001" xml:space="preserve" xmlns="http://www.w3.org/2000/svg">
		<path d="m424.22 366.94l52.038-12.084-7.09-30.534-47.244 10.97c-5.613-34.209-21.181-67.543-44.627-94.678 20.635-28.324 36.949-64.818 46.453-104.27 9.713-40.327 11.006-79.165 3.459-103.89-6.458-21.155-18.157-28.625-26.836-31.166-8.004-2.343-20.817-2.63-36.388 9.322-33.228 25.505-68.817 100.74-73.25 175.22-11.341-2.766-22.964-4.197-34.73-4.197s-23.388 1.432-34.73 4.197c-4.434-74.483-40.022-149.72-73.25-175.22-15.57-11.953-28.381-11.669-36.387-9.323-8.679 2.542-20.379 10.012-26.836 31.166-7.548 24.726-6.255 63.563 3.459 103.89 9.504 39.457 25.819 75.949 46.453 104.27-23.446 27.135-39.015 60.469-44.627 94.678l-47.244-10.97-7.09 30.535 52.038 12.084c0.423 20.887 4.702 40.264 12.649 57.703l-64.687 15.022 7.09 30.535 74.968-17.408c5.936 7.384 12.713 14.249 20.332 20.531 30.248 24.94 72.106 38.675 117.86 38.675s87.615-13.735 117.86-38.675c7.619-6.282 14.397-13.148 20.332-20.531l74.968 17.407 7.09-30.535-64.687-15.022c7.946-17.438 12.225-36.815 12.648-57.702zm-41.148-331.47c5.159-3.959 8.007-4.247 8.491-4.104 0.589 0.172 3.279 2.416 5.666 10.235 10.471 34.302-1.86 118.36-42.582 176.82-10.384-8.565-21.441-15.716-32.992-21.366 1.267-71.131 36.286-142.29 61.417-161.58zm-268.29 6.13c2.387-7.819 5.075-10.062 5.665-10.235 0.48-0.143 3.332 0.146 8.491 4.104 25.13 19.29 60.15 90.45 61.417 161.58-11.55 5.65-22.607 12.801-32.992 21.366-40.721-58.454-53.052-142.51-42.581-176.82zm141.24 368.93c-1.672-0.064-7.128-2.544-12.755-8.237-5.909-5.978-7.908-11.18-7.913-12.635 0-0.086 1e-3 -0.166 3e-3 -0.24 1.811-0.76 6.893-2.015 20.649-2.015s18.836 1.255 20.648 2.015c2e-3 0.074 3e-3 0.155 3e-3 0.24-5e-3 1.454-2.004 6.656-7.913 12.634-5.626 5.693-11.083 8.175-12.722 8.238zm124.1 6.811l-42.273-9.816-7.09 30.535 28.297 6.571c-1.654 1.541-3.36 3.046-5.13 4.506-21.252 17.523-50.039 28.25-82.246 30.875v-41.891c18.797-8.551 36.325-30.147 36.325-48.463 0-13.562-6.77-23.879-19.065-29.052-7.681-3.232-17.221-4.549-32.933-4.549-15.711 0-25.253 1.319-32.934 4.549-12.295 5.173-19.065 15.491-19.065 29.053 0 18.316 17.529 39.913 36.326 48.463v41.892c-32.208-2.624-60.996-13.352-82.25-30.876-1.77-1.46-3.476-2.964-5.13-4.507l28.297-6.571-7.09-30.535-42.273 9.816c-6.88-12.903-11.039-27.352-12.341-43.026l54.614 12.682 7.09-30.535-60.567-14.064c4.462-29.926 18.185-59.283 39.152-82.908 26.622-29.995 60.776-46.514 96.17-46.514s69.549 16.519 96.17 46.514c20.967 23.625 34.69 52.982 39.152 82.908l-60.567 14.064 7.09 30.535 54.614-12.682c-1.304 15.676-5.463 30.124-12.343 43.026z"/>
		<path d="m203.84 276.96c-11.34 0-20.569 9.324-20.569 20.836 0 11.511 9.229 20.843 20.569 20.843 11.355 0 20.583-9.332 20.583-20.843-1e-3 -11.514-9.228-20.836-20.583-20.836z"/>
		<path d="m308.01 276.8c-11.45 0-20.738 9.401-20.738 20.998s9.288 20.998 20.738 20.998c11.437 0 20.725-9.401 20.725-20.998s-9.289-20.998-20.725-20.998z"/>
</svg>
